<svg xmlns="http://www.w3.org/2000/svg" viewBox="0 0 749.81 749.97"><defs><style>.cls-1{fill:#0783f0;}.cls-2{fill:#071144;}</style></defs><g id="Capa_2" data-name="Capa 2"><g id="Capa_1-2" data-name="Capa 1"><path class="cls-1" d="M749.81,399.36c-2.32,7.12-1.93,14.61-2.87,21.92A372.09,372.09,0,0,1,709.39,544c-5.88,11.54-16.19,17-29.17,16.38-14.23-.67-23.45-8.57-28.24-21.61-4-10.85-2.8-21.6,2.13-31.95a309,309,0,0,0,25.94-84c1.14-7-1.37-13.37-7-16.22-6-3.09-11.91-2.3-17.23,2-13.67,11.15-27.23,22.45-43,30.64-56.42,29.3-114.35,32.28-172.07,5.87C376,415.57,337.58,364,328.58,293.49c-9-70.24,15.49-129,69.7-175,10.4-8.83,21.35-17,30.85-26.89,2.89-3,5.74-6.07,5.69-10.68-.09-6.73-4-11.46-11.48-13-13-2.59-26.14-2.75-39.28-3.16-7.58-.23-15-1.17-21.66-5-12-6.85-19.58-16.6-18.65-31.05C344.64,15,352.24,6.08,365,1.34c.75-.28,1.67-.33,1.91-1.34h32c.67,1.41,2,.91,3.07,1a326.85,326.85,0,0,1,41,5.27c89.3,17.5,163.69,60.51,221.55,130.89,46.07,56,73.45,120.32,82.52,192.34.92,7.32.7,14.78,2.73,22ZM661.55,268.85c0-77.9-62.94-141.23-140.55-141.33-78.6-.09-141.78,62.66-141.92,141-.13,77.74,63.34,141.11,141.38,141.15C598.27,409.66,661.51,346.57,661.55,268.85Z"/><path class="cls-2" d="M0,350.44c2.33-6.77,1.9-13.92,2.78-20.88,7.43-58.79,27.2-113,60.11-162.34C104.53,104.82,160.21,59.35,229,29.48c14.77-6.41,26.75-3.17,34.36,4.85a35.55,35.55,0,0,1,6.46,38.07c-4.07,9.16-11.13,15-20.09,19.08a301.22,301.22,0,0,0-76,49C119.11,188.66,84.42,248.54,72,320.26c-17.55,101.66,9,191.49,78,267.94,45.71,50.65,103.21,82.26,170.4,94.57,98.9,18.12,186.86-6.4,263.86-70.71,9.8-8.19,20.72-10.5,32.58-5.87,10.84,4.23,17.66,12.26,19.41,24,1.27,8.58-2,15.67-8.27,21.38a376.39,376.39,0,0,1-121.19,74.35c-47.3,17.88-96.29,26.07-146.76,23.68-89.76-4.26-168.82-35.74-235.73-95.86C61.3,597,22.44,526.43,6.22,443.35c-2.48-12.73-3.95-25.61-5.17-38.53-.11-1.18.66-2.73-1-3.46Z"/></g></g></svg>